<svg xmlns="http://www.w3.org/2000/svg" xmlns:xlink="http://www.w3.org/1999/xlink" style="width: 100%; height: 100%" viewBox="0 0 185 213" preserveAspectRatio="none" width="185" height="213"><defs><svg width="185" height="213" viewBox="0 0 185 213" fill="none" xmlns="http://www.w3.org/2000/svg" id="svg1838780197_3928">
<path d="M154.902 83.3377H185V41.6688C185 18.7587 166.28 0 143.37 0C119.306 0 95.2556 0 71.2179 0C18.709 0 -15.9638 55.5841 7.44608 102.673H0.0656095V157.604C0.0656095 187.817 24.744 212.534 54.9963 212.534H113.848C153.018 212.534 185 180.514 185 141.382C185 117.703 173.314 96.4073 154.902 83.3377Z" fill="#363636"></path>
<path d="M171.892 70.1919C139.116 70.1919 106.327 70.1919 73.5246 70.1919C48.4618 70.1919 35.2385 39.6321 53.3821 21.5269C58.5331 16.3375 65.6829 13.147 73.5246 13.147H143.37C159.053 13.147 171.892 25.986 171.892 41.6694V70.1919Z" fill="#FDD04A"></path>
<path d="M45.0794 43.7067C44.4259 36.0188 46.9245 27.9848 53.3824 21.5269C58.5334 16.3375 65.6832 13.147 73.5249 13.147H143.37C159.054 13.147 171.893 25.986 171.893 41.6694V46.2438C171.893 30.5988 159.054 17.7214 143.37 17.7214H73.5249C65.6832 17.7214 58.5334 20.9503 53.3824 26.1013C48.193 31.2907 45.5791 37.5179 45.0794 43.7067Z" fill="#FFFFFF"></path>
<path d="M13.1745 115.781H113.849C136.836 115.781 155.671 134.617 155.671 157.604C155.671 180.591 136.836 199.426 113.849 199.426H54.9971C32.01 199.426 13.1745 180.591 13.1745 157.604V115.781Z" fill="#FDD04A"></path>
<path d="M73.525 83.3383H113.849C153.519 83.3383 181.733 122.739 168.741 160.257C170.24 128.966 145.1 102.674 113.849 102.674H22.5153C6.29367 77.7261 11.6752 44.6678 34.9698 25.9476C23.7838 53.2014 44.0416 83.3383 73.525 83.3383Z" fill="#FE6C59"></path>
<path d="M73.5247 54.2003H146.291C157.477 54.2003 167.241 60.7351 171.892 70.1913H73.5247V54.2003Z" fill="#F68631"></path>
<path d="M152.096 14.9532C145.561 12.6083 138.911 12.8774 137.258 15.5298C135.567 18.2206 139.526 22.2568 146.061 24.6016C152.595 26.9464 159.246 26.7158 160.898 24.025C162.59 21.3727 158.63 17.298 152.096 14.9532Z" fill="#FFFFFF"></path>
<path d="M113.849 178.438C131.07 178.438 145.177 164.331 145.177 147.11C145.177 129.889 131.07 115.781 113.849 115.781C136.836 115.781 155.671 134.617 155.671 157.604C155.671 180.591 136.836 199.426 113.849 199.426H54.9971C32.01 199.426 13.1745 180.591 13.1745 157.604V147.11C13.1745 164.331 27.2819 178.438 44.503 178.438H113.849Z" fill="#F68631"></path>
<path d="M135.951 122.931C126.494 116.511 113.656 114.551 107.275 118.587C100.894 122.585 103.392 131.08 112.848 137.5C122.343 143.919 135.143 145.879 141.525 141.882C147.906 137.846 145.407 129.389 135.951 122.931Z" fill="#FFFFFF"></path>
<path d="M13.1745 115.781H113.849C136.836 115.781 155.671 134.617 155.671 157.604C155.671 158.475 155.646 159.346 155.594 160.218C154.21 138.538 135.913 122.162 113.849 121.009L13.1745 115.781Z" fill="#FFFFFF"></path>
<path d="M73.5246 70.1919C48.4618 70.1919 35.2385 39.6321 53.3821 21.5269C58.5331 16.3375 65.6829 13.147 73.5246 13.147V70.1919Z" fill="#FFFFFF"></path>
<path d="M73.5251 13.147C89.2855 13.147 102.048 25.9091 102.048 41.6694C102.048 57.4298 89.2855 70.1919 73.5251 70.1919C57.7648 70.1919 44.9643 57.4298 44.9643 41.6694C44.9643 25.9091 57.7648 13.147 73.5251 13.147Z" fill="#FFFFFF"></path>
<path d="M73.5243 20.7578C85.0563 20.7578 94.4357 30.1371 94.4357 41.669C94.4357 53.201 85.0563 62.5804 73.5243 62.5804C61.9539 62.5804 52.613 53.201 52.613 41.669C52.613 30.1371 61.9539 20.7578 73.5243 20.7578Z" fill="#363636"></path>
<path d="M65.798 24.1406C67.7584 24.1406 69.3345 25.7166 69.3345 27.677C69.3345 29.599 67.7584 31.1751 65.798 31.1751C63.876 31.1751 62.3 29.599 62.3 27.677C62.3 25.7166 63.876 24.1406 65.798 24.1406Z" fill="#FFFFFF"></path>
<path d="M59.7249 33.4045C60.6859 33.4045 61.4931 34.1733 61.4931 35.1727C61.4931 36.1337 60.6859 36.9025 59.7249 36.9025C58.7639 36.9025 57.9567 36.1337 57.9567 35.1727C57.9567 34.1733 58.7639 33.4045 59.7249 33.4045Z" fill="#FFFFFF"></path>
<path d="M113.849 102.674H22.5153C6.29367 77.7261 11.6752 44.6678 34.9698 25.9476C18.6713 46.6282 27.7816 92.9867 70.2192 92.9867H113.849C149.982 92.9867 175.083 126.083 168.741 160.257C170.24 128.966 145.1 102.674 113.849 102.674Z" fill="#DB473B"></path>
</svg></defs><use href="#svg1838780197_3928"></use></svg>